<?xml version="1.0" standalone="no"?>
<svg xmlns="http://www.w3.org/2000/svg" viewBox="0 0 325.79475957385546 105.07475957385546" width="325.79475957385546" height="105.07475957385546"><rect fill="#295c3c" width="325.79475957385546" height="105.07475957385546" x="0" y="0"></rect><g fill="white" color="white" transform="translate(12 12) scale(0.8107476)"><svg width="100.0" height="100.0" x="0.0" y="0.0" viewBox="0 0 100 100"><path fill="none" d="M57.236,69.745c0.295,3.507,0.613,5.875,0.613,5.875h-2.477c-0.09-2.014-0.137-4.01-0.152-5.971  c-0.385-0.012-0.772-0.021-1.175-0.027c-0.356-0.005-0.7-0.005-1.038-0.001c0.202,1.824,0.385,3.673,0.537,5.537l-3.394,0.445  c0,0,0.033-2.314-0.072-5.883c-9.9,0.666-10.627,4.393-10.627,4.393c0.991,2.46,7.146,4.36,14.594,4.36  c7.451,0,13.607-1.9,14.595-4.36C68.641,74.113,68.632,70.476,57.236,69.745z"></path><path d="M57.131,68.463c-0.562-7.375-0.889-18.594,1.578-24.457c0,0-0.082-1.271-1.975-1.04c0,0-1.54,11.566-1.52,25.4  c-0.388-0.009-0.774-0.018-1.169-0.018c-0.396,0-0.792,0.009-1.183,0.018c-2.193-18.591-6.595-34.292-6.595-34.292  c-2.64,0.045-2.54,1.669-2.54,1.669c4.698,7.523,5.972,23.519,6.31,32.796c-6.19,0.599-10.728,2.551-10.728,4.871  c0,0.239,0.141,0.702,0.141,0.702s0.727-3.727,10.627-4.393c0.105,3.568,0.072,5.883,0.072,5.883l3.394-0.445  c-0.152-1.864-0.335-3.713-0.537-5.537c0.338-0.004,0.682-0.004,1.038,0.001c0.402,0.007,0.79,0.016,1.175,0.027  c0.016,1.961,0.062,3.957,0.152,5.971h2.477c0,0-0.318-2.368-0.613-5.875c11.396,0.73,11.404,4.368,11.404,4.368  s0.145-0.463,0.145-0.702C68.785,70.978,63.79,68.947,57.131,68.463z"></path><path d="M54.046,78.474c-7.448,0-13.604-1.9-14.594-4.36l4.547,21.859c0,1.903,4.499,3.446,10.047,3.446  c5.55,0,10.053-1.543,10.053-3.446l4.542-21.859C67.653,76.573,61.497,78.474,54.046,78.474z"></path><path d="M45.587,32.387c0,0,4.432-2.803,1.84-9.238C47.427,23.148,43.2,27.4,45.587,32.387z"></path><path d="M44.408,33.142c0,0,2.458-4.634-2.991-8.932C41.417,24.21,39.859,30,44.408,33.142z"></path><path d="M39.671,27.768c0,0,1.904-4.887-4.006-8.526C35.665,19.242,34.788,25.173,39.671,27.768z"></path><path d="M40.05,32.06c0,0,0.219-5.24-6.551-6.767C33.499,25.292,34.59,31.187,40.05,32.06z"></path><path d="M39.596,33.215c0,0-2.756-4.461-9.217-1.934C30.379,31.281,34.586,35.553,39.596,33.215z"></path><path d="M24.47,35.08c0,0-2.757-4.462-9.219-1.935C15.251,33.146,19.46,37.416,24.47,35.08z"></path><path d="M31.967,38.378c0,0,0.087-5.246-6.719-6.603C25.249,31.776,26.49,37.641,31.967,38.378z"></path><path d="M29.953,38.638c0,0-2.532-4.595-9.112-2.392C20.841,36.246,24.831,40.721,29.953,38.638z"></path><path d="M25.908,39.099c0,0-3.043-4.27-9.325-1.321C16.583,37.777,21.066,41.761,25.908,39.099z"></path><path d="M30.498,42.181c0,0-4.264-3.055-9.251,1.771C21.247,43.952,26.774,46.268,30.498,42.181z"></path><path d="M32.541,41.266c0,0-5.242-0.14-6.668,6.65C25.873,47.916,31.751,46.737,32.541,41.266z"></path><path d="M41.988,40.08c0,0-2.755-4.463-9.219-1.935C32.769,38.146,36.977,42.416,41.988,40.08z"></path><path d="M48.424,42.917c0,0,0.086-5.245-6.719-6.602C41.705,36.315,42.944,42.181,48.424,42.917z"></path><path d="M48.412,44.315c0,0-2.531-4.595-9.11-2.393C39.302,41.923,43.291,46.398,48.412,44.315z"></path><path d="M41.317,45.333c0,0-3.044-4.27-9.327-1.32C31.991,44.013,36.472,47.996,41.317,45.333z"></path><path d="M45.116,47.37c0,0-4.264-3.055-9.252,1.769C35.864,49.139,41.395,51.456,45.116,47.37z"></path><path d="M74.043,8.13c0,0-5.244-0.139-6.671,6.651C67.372,14.781,73.254,13.603,74.043,8.13z"></path><path d="M58.066,27.841c0,0,5.223-0.484,5.832-7.397C63.898,20.444,58.201,22.315,58.066,27.841z"></path><path d="M56.676,27.981c0,0,4.29-3.016,1.386-9.316C58.062,18.665,54.046,23.117,56.676,27.981z"></path><path d="M54.89,21.042c0,0,3.914-3.492,0.299-9.415C55.188,11.627,51.717,16.515,54.89,21.042z"></path><path d="M53.281,25.039c0,0,2.571-4.572-2.767-9.003C50.515,16.036,48.814,21.784,53.281,25.039z"></path><path d="M52.352,25.862c0,0-0.43-5.226-7.336-5.905C45.015,19.958,46.83,25.673,52.352,25.862z"></path><path d="M67.136,26.636c0,0,3.496,3.91,9.414,0.282C76.55,26.918,71.656,23.456,67.136,26.636z"></path><path d="M66.194,25.601c0,0,4.978,1.652,8.312-4.432C74.506,21.169,68.538,20.595,66.194,25.601z"></path><path d="M70.707,20.037c0,0,5.136,1.065,7.745-5.366C78.452,14.671,72.456,14.792,70.707,20.037z"></path><path d="M72.223,26.154c0,0,5.135,1.065,7.741-5.365C79.964,20.789,73.968,20.91,72.223,26.154z"></path><path d="M66.537,21.123c0,0,5.205-0.655,5.589-7.582C72.126,13.541,66.495,15.595,66.537,21.123z"></path><path d="M65.321,20.867c0,0,3.943-3.458,0.379-9.412C65.7,11.456,62.188,16.314,65.321,20.867z"></path><path d="M60.047,16.115c0,0,5.15-0.996,5.075-7.935C65.122,8.18,59.64,10.603,60.047,16.115z"></path><path d="M66.115,12.147c0,0,5.148-0.998,5.072-7.936C71.188,4.212,65.706,6.634,66.115,12.147z"></path><path d="M61.258,9.052c0,0,4.998-1.587,4.122-8.47C65.38,0.582,60.212,3.624,61.258,9.052z"></path><path d="M58.155,12.042c0,0,4.214-3.12,1.155-9.349C59.311,2.694,55.408,7.245,58.155,12.042z"></path><path d="M56.971,12.414c0,0,1.742-4.946-4.284-8.39C52.687,4.024,52.006,9.981,56.971,12.414z"></path><path d="M36.868,22.143c0,0,2.38-4.674-3.142-8.881C33.727,13.262,32.268,19.076,36.868,22.143z"></path><path d="M36.242,23.393c0,0-0.257-5.238-7.134-6.148C29.108,17.245,30.729,23.018,36.242,23.393z"></path><path d="M29.423,21.194c0,0-0.864-5.172-7.801-5.28C21.622,15.915,23.9,21.46,29.423,21.194z"></path><path d="M31.941,24.691c0,0-2.49-4.616-9.089-2.47C22.853,22.221,26.804,26.729,31.941,24.691z"></path><path d="M32.144,25.917c0,0-4.651-2.428-8.915,3.048C23.229,28.965,29.03,30.484,32.144,25.917z"></path><path d="M50.376,18.363c0,0,4.819-2.07,3.268-8.833C53.644,9.529,48.802,13.065,50.376,18.363z"></path><path d="M49.095,18.924c0,0,3.151-4.191-1.552-9.29C47.543,9.635,45.096,15.109,49.095,18.924z"></path><path d="M45.257,12.873c0,0,2.646-4.527-2.618-9.047C42.639,3.826,40.844,9.545,45.257,12.873z"></path><path d="M38.94,16.671c0,0,2.646-4.527-2.618-9.048C36.322,7.623,34.526,13.344,38.94,16.671z"></path><path d="M33.236,10.34c0,0,2.12-4.797-3.621-8.693C29.615,1.646,28.476,7.531,33.236,10.34z"></path><path d="M29.908,17.424c0,0,1.548-5.01-4.604-8.216C25.304,9.208,24.853,15.187,29.908,17.424z"></path><path d="M28.608,16.817c0,0-0.156-5.242-7.016-6.282C21.592,10.535,23.101,16.336,28.608,16.817z"></path><path d="M28.239,18.002c0,0-3.068-4.252-9.333-1.271C18.906,16.732,23.409,20.693,28.239,18.002z"></path><path d="M68.483,49.763c0,0-2.209-4.756-8.924-3.011C59.56,46.752,63.231,51.489,68.483,49.763z"></path><path d="M76.305,46.464c0,0-2.211-4.757-8.925-3.012C67.38,43.452,71.053,48.189,76.305,46.464z"></path><path d="M44.959,17.172c0,0,1.038-5.141-5.406-7.713C39.553,9.459,39.706,15.453,44.959,17.172z"></path><path d="M44.329,18.244c0,0-2.021-4.84-8.8-3.357C35.529,14.886,39.016,19.764,44.329,18.244z"></path><path d="M68.862,40.841c0,0,4.309,2.989,9.225-1.91C78.087,38.932,72.521,36.699,68.862,40.841z"></path><path d="M67.706,40.051c0,0,5.227,0.455,7.058-6.237C74.764,33.813,68.825,34.638,67.706,40.051z"></path><path d="M70.807,33.591c0,0,5.243-0.153,6.289-7.012C77.096,26.579,71.292,28.085,70.807,33.591z"></path><path d="M76.093,31.943c0,0,4.821,2.067,8.656-3.717C84.749,28.226,78.848,27.151,76.093,31.943z"></path><path d="M67.003,35.614c0,0,4.91-1.842,3.677-8.671C70.68,26.943,65.677,30.249,67.003,35.614z"></path><path d="M65.761,35.649c0,0,3.032-4.28-1.812-9.242C63.948,26.407,61.656,31.947,65.761,35.649z"></path><path d="M62.281,44.255c0,0,5.228-0.459,5.868-7.371C68.149,36.884,62.445,38.729,62.281,44.255z"></path><path d="M60.891,44.386c0,0,4.304-2.993,1.43-9.31C62.32,35.076,58.285,39.512,60.891,44.386z"></path><path d="M59.137,37.438c0,0,3.932-3.473,0.347-9.413C59.483,28.026,55.987,32.897,59.137,37.438z"></path><path d="M57.511,41.428c0,0,2.592-4.558-2.724-9.016C54.787,32.412,53.058,38.151,57.511,41.428z"></path><path d="M56.578,42.247c0,0-0.408-5.228-7.308-5.94C49.27,36.307,51.055,42.031,56.578,42.247z"></path><path d="M55.661,33.998c0,0-0.408-5.228-7.31-5.94C48.352,28.057,50.136,33.781,55.661,33.998z"></path></svg></g><path fill="white" fill-rule="nonzero" d="M14.92 29.28L14.92 29.28Q14.40 29.40 13.84 29.46Q13.28 29.52 12.84 29.52L12.84 29.52Q11.52 29.52 10.52 29.06Q9.52 28.60 8.76 27.84Q8 27.08 7.48 26.10Q6.96 25.12 6.68 24.12L6.68 24.12L0 1.80L2.36 1.20L9.04 23.52Q9.52 25.24 10.46 26.24Q11.40 27.24 13 27.40L13 27.40L21.48 1.20L23.76 1.88L14.92 29.28ZM28.76 1.60L31.20 1.60L31.20 28.96L28.76 28.96L28.76 1.60ZM51.32 29.28L51.32 29.28Q50.80 29.40 50.24 29.46Q49.68 29.52 49.24 29.52L49.24 29.52Q47.92 29.52 46.92 29.06Q45.92 28.60 45.16 27.84Q44.40 27.08 43.88 26.10Q43.36 25.12 43.08 24.12L43.08 24.12L36.40 1.80L38.76 1.20L45.44 23.52Q45.92 25.24 46.86 26.24Q47.80 27.24 49.40 27.40L49.40 27.40L57.88 1.20L60.16 1.88L51.32 29.28ZM83.88 26.68L83.88 28.96L65.16 28.96L65.16 1.60L83.08 1.60L83.08 3.88L67.60 3.88L67.60 13.36L80.28 13.36L80.28 15.64L67.60 15.64L67.60 26.68L83.88 26.68ZM107.92 28.96L105.28 28.96L102.48 21.84Q102.04 20.72 101.48 19.84Q100.92 18.96 100.14 18.34Q99.36 17.72 98.32 17.40Q97.28 17.08 95.92 17.08L95.92 17.08L92.08 17.08L92.08 28.96L89.64 28.96L89.64 3.72Q88.36 3.52 87.22 3Q86.08 2.48 85.28 1.36L85.28 1.36L86.60 0Q87.44 0.80 88.60 1.20Q89.76 1.60 91.36 1.60L91.36 1.60Q92.28 1.60 92.92 1.54Q93.56 1.48 94.20 1.40Q94.84 1.32 95.62 1.26Q96.40 1.20 97.68 1.20L97.68 1.20Q99.48 1.20 100.96 1.80Q102.44 2.40 103.50 3.46Q104.56 4.52 105.16 5.96Q105.76 7.40 105.76 9.12L105.76 9.12Q105.76 11.88 104.40 13.66Q103.04 15.44 100.72 16.16L100.72 16.16Q102.04 16.76 102.86 17.80Q103.68 18.84 104.32 20.32L104.32 20.32L107.92 28.96ZM97.56 3.40L97.56 3.40Q96.28 3.40 95.52 3.46Q94.76 3.52 94.22 3.58Q93.68 3.64 93.20 3.72Q92.72 3.80 92.08 3.80L92.08 3.80L92.08 14.88L97.64 14.88Q98.88 14.88 99.94 14.48Q101 14.08 101.76 13.34Q102.52 12.60 102.94 11.52Q103.36 10.44 103.36 9.12L103.36 9.12Q103.36 6.48 101.78 4.94Q100.20 3.40 97.56 3.40ZM137.60 0L138.92 1.36Q138 2.64 136.60 3.18Q135.20 3.72 133.76 3.80L133.76 3.80Q134.36 4.60 135.06 5.74Q135.76 6.88 136.36 8.32Q136.96 9.76 137.34 11.50Q137.72 13.24 137.72 15.28L137.72 15.28Q137.72 18.28 136.76 20.86Q135.80 23.44 134.02 25.32Q132.24 27.20 129.76 28.28Q127.28 29.36 124.24 29.36L124.24 29.36Q121.16 29.36 118.68 28.28Q116.20 27.20 114.42 25.30Q112.64 23.40 111.68 20.84Q110.72 18.28 110.72 15.28L110.72 15.28Q110.72 12.28 111.68 9.70Q112.64 7.12 114.42 5.24Q116.20 3.36 118.68 2.28Q121.16 1.20 124.24 1.20L124.24 1.20Q126.76 1.20 128.86 1.40Q130.96 1.60 132.84 1.60L132.84 1.60Q134.44 1.60 135.60 1.20Q136.76 0.80 137.60 0L137.60 0ZM135.32 15.28L135.32 15.28Q135.32 12.76 134.72 10.78Q134.12 8.80 133.34 7.34Q132.56 5.88 131.80 4.98Q131.04 4.08 130.72 3.76L130.72 3.76Q129.24 3.68 127.62 3.54Q126 3.40 124.20 3.40L124.20 3.40Q121.72 3.40 119.68 4.26Q117.64 5.12 116.20 6.70Q114.76 8.28 113.96 10.46Q113.16 12.64 113.16 15.28L113.16 15.28Q113.16 17.92 113.96 20.10Q114.76 22.28 116.22 23.84Q117.68 25.40 119.72 26.28Q121.76 27.16 124.24 27.16L124.24 27.16Q126.72 27.16 128.76 26.30Q130.80 25.44 132.26 23.86Q133.72 22.28 134.52 20.10Q135.32 17.92 135.32 15.28Z" transform="translate(108.075 12) scale(1.481)"></path><path fill="white" fill-rule="nonzero" d="M24.96 27.24L24.36 29.04Q22.92 28.76 21.80 28.20Q20.68 27.64 19.76 26.96Q18.84 26.28 18.10 25.52Q17.36 24.76 16.76 24.04L16.76 24.04L5.32 10.76Q4.60 9.96 3.76 8.80Q2.92 7.64 2.16 6.52L2.16 6.52Q2.24 7.56 2.34 8.70Q2.44 9.84 2.44 10.76L2.44 10.76L2.44 28.96L0 28.96L0 1.20L0.76 1.20L19.20 23.20Q19.48 23.52 19.80 23.90Q20.12 24.28 20.56 24.68L20.56 24.68Q20.48 23.88 20.44 23.04Q20.40 22.20 20.40 21.40L20.40 21.40L20.40 1.56L22.84 1.56L22.84 26.40Q23.32 26.68 23.84 26.90Q24.36 27.12 24.96 27.24L24.96 27.24ZM39.04 0.84L39.80 0.84L51.76 28.96L49.20 28.96L45.32 19.88L33.52 19.88L29.72 28.96L27.16 28.96L39.04 0.84ZM38.44 8.28L34.48 17.60L44.36 17.60L40.40 8.28Q40.08 7.52 39.82 6.66Q39.56 5.80 39.40 5.16L39.40 5.16Q39.24 5.84 39 6.70Q38.76 7.56 38.44 8.28L38.44 8.28ZM72.32 1.60L72.32 3.88L62.76 3.88L62.76 28.96L60.32 28.96L60.32 3.88L50.76 3.88L50.76 1.60L72.32 1.60ZM76.52 1.60L78.96 1.60L78.96 18.28Q78.96 20.36 79.56 22Q80.16 23.64 81.24 24.78Q82.32 25.92 83.84 26.54Q85.36 27.16 87.20 27.16L87.20 27.16Q89.04 27.16 90.58 26.54Q92.12 25.92 93.20 24.78Q94.28 23.64 94.88 22Q95.48 20.36 95.48 18.28L95.48 18.28L95.48 1.60L97.92 1.60L97.92 18.28Q97.92 20.76 97.16 22.78Q96.40 24.80 94.98 26.28Q93.56 27.76 91.60 28.56Q89.64 29.36 87.24 29.36L87.24 29.36Q84.80 29.36 82.82 28.56Q80.84 27.76 79.44 26.28Q78.04 24.80 77.28 22.78Q76.52 20.76 76.52 18.28L76.52 18.28L76.52 1.60ZM124.36 28.96L121.72 28.96L118.92 21.84Q118.48 20.72 117.92 19.84Q117.36 18.96 116.58 18.34Q115.80 17.72 114.76 17.40Q113.72 17.08 112.36 17.08L112.36 17.08L108.52 17.08L108.52 28.96L106.08 28.96L106.08 3.72Q104.80 3.52 103.66 3Q102.52 2.48 101.72 1.36L101.72 1.36L103.04 0Q103.88 0.80 105.04 1.20Q106.20 1.60 107.80 1.60L107.80 1.60Q108.72 1.60 109.36 1.54Q110.00 1.48 110.64 1.40Q111.28 1.32 112.06 1.26Q112.84 1.20 114.12 1.20L114.12 1.20Q115.92 1.20 117.40 1.80Q118.88 2.40 119.94 3.46Q121.00 4.52 121.60 5.96Q122.20 7.40 122.20 9.12L122.20 9.12Q122.20 11.88 120.84 13.66Q119.48 15.44 117.16 16.16L117.16 16.16Q118.48 16.76 119.30 17.80Q120.12 18.84 120.76 20.32L120.76 20.32L124.36 28.96ZM114.00 3.40L114.00 3.40Q112.72 3.40 111.96 3.46Q111.20 3.52 110.66 3.58Q110.12 3.64 109.64 3.72Q109.16 3.80 108.52 3.80L108.52 3.80L108.52 14.88L114.08 14.88Q115.32 14.88 116.38 14.48Q117.44 14.08 118.20 13.34Q118.96 12.60 119.38 11.52Q119.80 10.44 119.80 9.12L119.80 9.12Q119.80 6.48 118.22 4.94Q116.64 3.40 114.00 3.40ZM137.44 0.84L138.20 0.84L150.16 28.96L147.60 28.96L143.72 19.88L131.92 19.88L128.12 28.96L125.56 28.96L137.44 0.84ZM136.84 8.28L132.88 17.60L142.76 17.60L138.80 8.28Q138.48 7.52 138.22 6.66Q137.96 5.80 137.80 5.16L137.80 5.16Q137.64 5.84 137.40 6.70Q137.16 7.56 136.84 8.28L136.84 8.28ZM169.88 26.68L169.88 28.96L154.36 28.96L154.36 1.60L156.80 1.60L156.80 26.68L169.88 26.68ZM174.48 1.60L176.92 1.60L176.92 28.96L174.48 28.96L174.48 1.60ZM193 0.84L193.76 0.84L205.72 28.96L203.16 28.96L199.28 19.88L187.48 19.88L183.68 28.96L181.12 28.96L193 0.84ZM192.40 8.28L188.44 17.60L198.32 17.60L194.36 8.28Q194.04 7.52 193.78 6.66Q193.52 5.80 193.36 5.16L193.36 5.16Q193.20 5.84 192.96 6.70Q192.72 7.56 192.40 8.28L192.40 8.28Z" transform="translate(108.075 63.715) scale(1)"></path></svg>